<?xml version="1.0" encoding="UTF-8"?>
<!-- This file is generated by npm run build:icons -->
<svg xmlns="http://www.w3.org/2000/svg" xmlns:xlink="http://www.w3.org/1999/xlink" width="0" height="0">
<defs>
<symbol viewBox="0 0 15 15" fill="none" id="avatar">
  <path     fill-rule="evenodd"
    clip-rule="evenodd"
    d="M0.877014 7.49988C0.877014 3.84219 3.84216 0.877045 7.49985 0.877045C11.1575 0.877045 14.1227 3.84219 14.1227 7.49988C14.1227 11.1575 11.1575 14.1227 7.49985 14.1227C3.84216 14.1227 0.877014 11.1575 0.877014 7.49988ZM7.49985 1.82704C4.36683 1.82704 1.82701 4.36686 1.82701 7.49988C1.82701 8.97196 2.38774 10.3131 3.30727 11.3213C4.19074 9.94119 5.73818 9.02499 7.50023 9.02499C9.26206 9.02499 10.8093 9.94097 11.6929 11.3208C12.6121 10.3127 13.1727 8.97172 13.1727 7.49988C13.1727 4.36686 10.6328 1.82704 7.49985 1.82704ZM10.9818 11.9787C10.2839 10.7795 8.9857 9.97499 7.50023 9.97499C6.01458 9.97499 4.71624 10.7797 4.01845 11.9791C4.97952 12.7272 6.18765 13.1727 7.49985 13.1727C8.81227 13.1727 10.0206 12.727 10.9818 11.9787ZM5.14999 6.50487C5.14999 5.207 6.20212 4.15487 7.49999 4.15487C8.79786 4.15487 9.84999 5.207 9.84999 6.50487C9.84999 7.80274 8.79786 8.85487 7.49999 8.85487C6.20212 8.85487 5.14999 7.80274 5.14999 6.50487ZM7.49999 5.10487C6.72679 5.10487 6.09999 5.73167 6.09999 6.50487C6.09999 7.27807 6.72679 7.90487 7.49999 7.90487C8.27319 7.90487 8.89999 7.27807 8.89999 6.50487C8.89999 5.73167 8.27319 5.10487 7.49999 5.10487Z"
    fill="currentColor"
  ></path>
</symbol>
<symbol viewBox="0 0 15 15" fill="none" id="calender"><path d="M4.5 1C4.77614 1 5 1.22386 5 1.5V2H10V1.5C10 1.22386 10.2239 1 10.5 1C10.7761 1 11 1.22386 11 1.5V2H12.5C13.3284 2 14 2.67157 14 3.5V12.5C14 13.3284 13.3284 14 12.5 14H2.5C1.67157 14 1 13.3284 1 12.5V3.5C1 2.67157 1.67157 2 2.5 2H4V1.5C4 1.22386 4.22386 1 4.5 1ZM10 3V3.5C10 3.77614 10.2239 4 10.5 4C10.7761 4 11 3.77614 11 3.5V3H12.5C12.7761 3 13 3.22386 13 3.5V5H2V3.5C2 3.22386 2.22386 3 2.5 3H4V3.5C4 3.77614 4.22386 4 4.5 4C4.77614 4 5 3.77614 5 3.5V3H10ZM2 6V12.5C2 12.7761 2.22386 13 2.5 13H12.5C12.7761 13 13 12.7761 13 12.5V6H2ZM7 7.5C7 7.22386 7.22386 7 7.5 7C7.77614 7 8 7.22386 8 7.5C8 7.77614 7.77614 8 7.5 8C7.22386 8 7 7.77614 7 7.5ZM9.5 7C9.22386 7 9 7.22386 9 7.5C9 7.77614 9.22386 8 9.5 8C9.77614 8 10 7.77614 10 7.5C10 7.22386 9.77614 7 9.5 7ZM11 7.5C11 7.22386 11.2239 7 11.5 7C11.7761 7 12 7.22386 12 7.5C12 7.77614 11.7761 8 11.5 8C11.2239 8 11 7.77614 11 7.5ZM11.5 9C11.2239 9 11 9.22386 11 9.5C11 9.77614 11.2239 10 11.5 10C11.7761 10 12 9.77614 12 9.5C12 9.22386 11.7761 9 11.5 9ZM9 9.5C9 9.22386 9.22386 9 9.5 9C9.77614 9 10 9.22386 10 9.5C10 9.77614 9.77614 10 9.5 10C9.22386 10 9 9.77614 9 9.5ZM7.5 9C7.22386 9 7 9.22386 7 9.5C7 9.77614 7.22386 10 7.5 10C7.77614 10 8 9.77614 8 9.5C8 9.22386 7.77614 9 7.5 9ZM5 9.5C5 9.22386 5.22386 9 5.5 9C5.77614 9 6 9.22386 6 9.5C6 9.77614 5.77614 10 5.5 10C5.22386 10 5 9.77614 5 9.5ZM3.5 9C3.22386 9 3 9.22386 3 9.5C3 9.77614 3.22386 10 3.5 10C3.77614 10 4 9.77614 4 9.5C4 9.22386 3.77614 9 3.5 9ZM3 11.5C3 11.2239 3.22386 11 3.5 11C3.77614 11 4 11.2239 4 11.5C4 11.7761 3.77614 12 3.5 12C3.22386 12 3 11.7761 3 11.5ZM5.5 11C5.22386 11 5 11.2239 5 11.5C5 11.7761 5.22386 12 5.5 12C5.77614 12 6 11.7761 6 11.5C6 11.2239 5.77614 11 5.5 11ZM7 11.5C7 11.2239 7.22386 11 7.5 11C7.77614 11 8 11.2239 8 11.5C8 11.7761 7.77614 12 7.5 12C7.22386 12 7 11.7761 7 11.5ZM9.5 11C9.22386 11 9 11.2239 9 11.5C9 11.7761 9.22386 12 9.5 12C9.77614 12 10 11.7761 10 11.5C10 11.2239 9.77614 11 9.5 11Z" fill="currentColor" fill-rule="evenodd" clip-rule="evenodd"></path></symbol>
<symbol viewBox="0 0 15 15" fill="none" id="check">
  <path     fill-rule="evenodd"
    clip-rule="evenodd"
    d="M11.4669 3.72684C11.7558 3.91574 11.8369 4.30308 11.648 4.59198L7.39799 11.092C7.29783 11.2452 7.13556 11.3467 6.95402 11.3699C6.77247 11.3931 6.58989 11.3355 6.45446 11.2124L3.70446 8.71241C3.44905 8.48022 3.43023 8.08494 3.66242 7.82953C3.89461 7.57412 4.28989 7.55529 4.5453 7.78749L6.75292 9.79441L10.6018 3.90792C10.7907 3.61902 11.178 3.53795 11.4669 3.72684Z"
    fill="currentColor"
  ></path>
</symbol>
<symbol viewBox="0 0 15 15" fill="none" id="chevron-left"><path d="M8.84182 3.13514C9.04327 3.32401 9.05348 3.64042 8.86462 3.84188L5.43521 7.49991L8.86462 11.1579C9.05348 11.3594 9.04327 11.6758 8.84182 11.8647C8.64036 12.0535 8.32394 12.0433 8.13508 11.8419L4.38508 7.84188C4.20477 7.64955 4.20477 7.35027 4.38508 7.15794L8.13508 3.15794C8.32394 2.95648 8.64036 2.94628 8.84182 3.13514Z" fill="currentColor" fill-rule="evenodd" clip-rule="evenodd"></path></symbol>
<symbol viewBox="0 0 15 15" fill="none" id="chevron-right"><path d="M6.1584 3.13508C6.35985 2.94621 6.67627 2.95642 6.86514 3.15788L10.6151 7.15788C10.7954 7.3502 10.7954 7.64949 10.6151 7.84182L6.86514 11.8418C6.67627 12.0433 6.35985 12.0535 6.1584 11.8646C5.95694 11.6757 5.94673 11.3593 6.1356 11.1579L9.565 7.49985L6.1356 3.84182C5.94673 3.64036 5.95694 3.32394 6.1584 3.13508Z" fill="currentColor" fill-rule="evenodd" clip-rule="evenodd"></path></symbol>
<symbol viewBox="0 0 15 15" fill="none" id="company"><path d="M7.75432 0.819537C7.59742 0.726821 7.4025 0.726821 7.24559 0.819537L1.74559 4.06954C1.59336 4.15949 1.49996 4.32317 1.49996 4.5C1.49996 4.67683 1.59336 4.84051 1.74559 4.93046L7.24559 8.18046C7.4025 8.27318 7.59742 8.27318 7.75432 8.18046L13.2543 4.93046C13.4066 4.84051 13.5 4.67683 13.5 4.5C13.5 4.32317 13.4066 4.15949 13.2543 4.06954L7.75432 0.819537ZM7.49996 7.16923L2.9828 4.5L7.49996 1.83077L12.0171 4.5L7.49996 7.16923ZM1.5695 7.49564C1.70998 7.2579 2.01659 7.17906 2.25432 7.31954L7.49996 10.4192L12.7456 7.31954C12.9833 7.17906 13.2899 7.2579 13.4304 7.49564C13.5709 7.73337 13.4921 8.03998 13.2543 8.18046L7.75432 11.4305C7.59742 11.5232 7.4025 11.5232 7.24559 11.4305L1.74559 8.18046C1.50786 8.03998 1.42901 7.73337 1.5695 7.49564ZM1.56949 10.4956C1.70998 10.2579 2.01658 10.1791 2.25432 10.3195L7.49996 13.4192L12.7456 10.3195C12.9833 10.1791 13.2899 10.2579 13.4304 10.4956C13.5709 10.7334 13.4921 11.04 13.2543 11.1805L7.75432 14.4305C7.59742 14.5232 7.4025 14.5232 7.24559 14.4305L1.74559 11.1805C1.50785 11.04 1.42901 10.7334 1.56949 10.4956Z" fill="currentColor" fill-rule="evenodd" clip-rule="evenodd"></path></symbol>
<symbol viewBox="0 0 15 15" fill="none" id="cross"><path d="M12.8536 2.85355C13.0488 2.65829 13.0488 2.34171 12.8536 2.14645C12.6583 1.95118 12.3417 1.95118 12.1464 2.14645L7.5 6.79289L2.85355 2.14645C2.65829 1.95118 2.34171 1.95118 2.14645 2.14645C1.95118 2.34171 1.95118 2.65829 2.14645 2.85355L6.79289 7.5L2.14645 12.1464C1.95118 12.3417 1.95118 12.6583 2.14645 12.8536C2.34171 13.0488 2.65829 13.0488 2.85355 12.8536L7.5 8.20711L12.1464 12.8536C12.3417 13.0488 12.6583 13.0488 12.8536 12.8536C13.0488 12.6583 13.0488 12.3417 12.8536 12.1464L8.20711 7.5L12.8536 2.85355Z" fill="currentColor" fill-rule="evenodd" clip-rule="evenodd"></path></symbol>
<symbol viewBox="0 0 15 15" fill="none" id="dashboard"><path d="M2.8 1L2.74967 0.99997C2.52122 0.999752 2.32429 0.999564 2.14983 1.04145C1.60136 1.17312 1.17312 1.60136 1.04145 2.14983C0.999564 2.32429 0.999752 2.52122 0.99997 2.74967L1 2.8V5.2L0.99997 5.25033C0.999752 5.47878 0.999564 5.67572 1.04145 5.85017C1.17312 6.39864 1.60136 6.82688 2.14983 6.95856C2.32429 7.00044 2.52122 7.00025 2.74967 7.00003L2.8 7H5.2L5.25033 7.00003C5.47878 7.00025 5.67572 7.00044 5.85017 6.95856C6.39864 6.82688 6.82688 6.39864 6.95856 5.85017C7.00044 5.67572 7.00025 5.47878 7.00003 5.25033L7 5.2V2.8L7.00003 2.74967C7.00025 2.52122 7.00044 2.32429 6.95856 2.14983C6.82688 1.60136 6.39864 1.17312 5.85017 1.04145C5.67572 0.999564 5.47878 0.999752 5.25033 0.99997L5.2 1H2.8ZM2.38328 2.01382C2.42632 2.00348 2.49222 2 2.8 2H5.2C5.50779 2 5.57369 2.00348 5.61672 2.01382C5.79955 2.05771 5.94229 2.20045 5.98619 2.38328C5.99652 2.42632 6 2.49222 6 2.8V5.2C6 5.50779 5.99652 5.57369 5.98619 5.61672C5.94229 5.79955 5.79955 5.94229 5.61672 5.98619C5.57369 5.99652 5.50779 6 5.2 6H2.8C2.49222 6 2.42632 5.99652 2.38328 5.98619C2.20045 5.94229 2.05771 5.79955 2.01382 5.61672C2.00348 5.57369 2 5.50779 2 5.2V2.8C2 2.49222 2.00348 2.42632 2.01382 2.38328C2.05771 2.20045 2.20045 2.05771 2.38328 2.01382ZM9.8 1L9.74967 0.99997C9.52122 0.999752 9.32429 0.999564 9.14983 1.04145C8.60136 1.17312 8.17312 1.60136 8.04145 2.14983C7.99956 2.32429 7.99975 2.52122 7.99997 2.74967L8 2.8V5.2L7.99997 5.25033C7.99975 5.47878 7.99956 5.67572 8.04145 5.85017C8.17312 6.39864 8.60136 6.82688 9.14983 6.95856C9.32429 7.00044 9.52122 7.00025 9.74967 7.00003L9.8 7H12.2L12.2503 7.00003C12.4788 7.00025 12.6757 7.00044 12.8502 6.95856C13.3986 6.82688 13.8269 6.39864 13.9586 5.85017C14.0004 5.67572 14.0003 5.47878 14 5.25033L14 5.2V2.8L14 2.74967C14.0003 2.52122 14.0004 2.32429 13.9586 2.14983C13.8269 1.60136 13.3986 1.17312 12.8502 1.04145C12.6757 0.999564 12.4788 0.999752 12.2503 0.99997L12.2 1H9.8ZM9.38328 2.01382C9.42632 2.00348 9.49222 2 9.8 2H12.2C12.5078 2 12.5737 2.00348 12.6167 2.01382C12.7995 2.05771 12.9423 2.20045 12.9862 2.38328C12.9965 2.42632 13 2.49222 13 2.8V5.2C13 5.50779 12.9965 5.57369 12.9862 5.61672C12.9423 5.79955 12.7995 5.94229 12.6167 5.98619C12.5737 5.99652 12.5078 6 12.2 6H9.8C9.49222 6 9.42632 5.99652 9.38328 5.98619C9.20045 5.94229 9.05771 5.79955 9.01382 5.61672C9.00348 5.57369 9 5.50779 9 5.2V2.8C9 2.49222 9.00348 2.42632 9.01382 2.38328C9.05771 2.20045 9.20045 2.05771 9.38328 2.01382ZM2.74967 7.99997L2.8 8H5.2L5.25033 7.99997C5.47878 7.99975 5.67572 7.99956 5.85017 8.04145C6.39864 8.17312 6.82688 8.60136 6.95856 9.14983C7.00044 9.32429 7.00025 9.52122 7.00003 9.74967L7 9.8V12.2L7.00003 12.2503C7.00025 12.4788 7.00044 12.6757 6.95856 12.8502C6.82688 13.3986 6.39864 13.8269 5.85017 13.9586C5.67572 14.0004 5.47878 14.0003 5.25033 14L5.2 14H2.8L2.74967 14C2.52122 14.0003 2.32429 14.0004 2.14983 13.9586C1.60136 13.8269 1.17312 13.3986 1.04145 12.8502C0.999564 12.6757 0.999752 12.4788 0.99997 12.2503L1 12.2V9.8L0.99997 9.74967C0.999752 9.52122 0.999564 9.32429 1.04145 9.14983C1.17312 8.60136 1.60136 8.17312 2.14983 8.04145C2.32429 7.99956 2.52122 7.99975 2.74967 7.99997ZM2.8 9C2.49222 9 2.42632 9.00348 2.38328 9.01382C2.20045 9.05771 2.05771 9.20045 2.01382 9.38328C2.00348 9.42632 2 9.49222 2 9.8V12.2C2 12.5078 2.00348 12.5737 2.01382 12.6167C2.05771 12.7995 2.20045 12.9423 2.38328 12.9862C2.42632 12.9965 2.49222 13 2.8 13H5.2C5.50779 13 5.57369 12.9965 5.61672 12.9862C5.79955 12.9423 5.94229 12.7995 5.98619 12.6167C5.99652 12.5737 6 12.5078 6 12.2V9.8C6 9.49222 5.99652 9.42632 5.98619 9.38328C5.94229 9.20045 5.79955 9.05771 5.61672 9.01382C5.57369 9.00348 5.50779 9 5.2 9H2.8ZM9.8 8L9.74967 7.99997C9.52122 7.99975 9.32429 7.99956 9.14983 8.04145C8.60136 8.17312 8.17312 8.60136 8.04145 9.14983C7.99956 9.32429 7.99975 9.52122 7.99997 9.74967L8 9.8V12.2L7.99997 12.2503C7.99975 12.4788 7.99956 12.6757 8.04145 12.8502C8.17312 13.3986 8.60136 13.8269 9.14983 13.9586C9.32429 14.0004 9.52122 14.0003 9.74967 14L9.8 14H12.2L12.2503 14C12.4788 14.0003 12.6757 14.0004 12.8502 13.9586C13.3986 13.8269 13.8269 13.3986 13.9586 12.8502C14.0004 12.6757 14.0003 12.4788 14 12.2503L14 12.2V9.8L14 9.74967C14.0003 9.52122 14.0004 9.32429 13.9586 9.14983C13.8269 8.60136 13.3986 8.17312 12.8502 8.04145C12.6757 7.99956 12.4788 7.99975 12.2503 7.99997L12.2 8H9.8ZM9.38328 9.01382C9.42632 9.00348 9.49222 9 9.8 9H12.2C12.5078 9 12.5737 9.00348 12.6167 9.01382C12.7995 9.05771 12.9423 9.20045 12.9862 9.38328C12.9965 9.42632 13 9.49222 13 9.8V12.2C13 12.5078 12.9965 12.5737 12.9862 12.6167C12.9423 12.7995 12.7995 12.9423 12.6167 12.9862C12.5737 12.9965 12.5078 13 12.2 13H9.8C9.49222 13 9.42632 12.9965 9.38328 12.9862C9.20045 12.9423 9.05771 12.7995 9.01382 12.6167C9.00348 12.5737 9 12.5078 9 12.2V9.8C9 9.49222 9.00348 9.42632 9.01382 9.38328C9.05771 9.20045 9.20045 9.05771 9.38328 9.01382Z" fill="currentColor" fill-rule="evenodd" clip-rule="evenodd"></path></symbol>
<symbol viewBox="0 0 15 15" fill="none" id="dot"><path d="M9.875 7.5C9.875 8.81168 8.81168 9.875 7.5 9.875C6.18832 9.875 5.125 8.81168 5.125 7.5C5.125 6.18832 6.18832 5.125 7.5 5.125C8.81168 5.125 9.875 6.18832 9.875 7.5Z" fill="currentColor"></path></symbol>
<symbol viewBox="0 0 15 15" fill="none" id="dots-vertical"><path d="M8.625 2.5C8.625 3.12132 8.12132 3.625 7.5 3.625C6.87868 3.625 6.375 3.12132 6.375 2.5C6.375 1.87868 6.87868 1.375 7.5 1.375C8.12132 1.375 8.625 1.87868 8.625 2.5ZM8.625 7.5C8.625 8.12132 8.12132 8.625 7.5 8.625C6.87868 8.625 6.375 8.12132 6.375 7.5C6.375 6.87868 6.87868 6.375 7.5 6.375C8.12132 6.375 8.625 6.87868 8.625 7.5ZM7.5 13.625C8.12132 13.625 8.625 13.1213 8.625 12.5C8.625 11.8787 8.12132 11.375 7.5 11.375C6.87868 11.375 6.375 11.8787 6.375 12.5C6.375 13.1213 6.87868 13.625 7.5 13.625Z" fill="currentColor" fill-rule="evenodd" clip-rule="evenodd"></path></symbol>
<symbol viewBox="0 0 15 15" fill="none" id="double-arrow-left"><path d="M6.85355 3.85355C7.04882 3.65829 7.04882 3.34171 6.85355 3.14645C6.65829 2.95118 6.34171 2.95118 6.14645 3.14645L2.14645 7.14645C1.95118 7.34171 1.95118 7.65829 2.14645 7.85355L6.14645 11.8536C6.34171 12.0488 6.65829 12.0488 6.85355 11.8536C7.04882 11.6583 7.04882 11.3417 6.85355 11.1464L3.20711 7.5L6.85355 3.85355ZM12.8536 3.85355C13.0488 3.65829 13.0488 3.34171 12.8536 3.14645C12.6583 2.95118 12.3417 2.95118 12.1464 3.14645L8.14645 7.14645C7.95118 7.34171 7.95118 7.65829 8.14645 7.85355L12.1464 11.8536C12.3417 12.0488 12.6583 12.0488 12.8536 11.8536C13.0488 11.6583 13.0488 11.3417 12.8536 11.1464L9.20711 7.5L12.8536 3.85355Z" fill="currentColor" fill-rule="evenodd" clip-rule="evenodd"></path></symbol>
<symbol viewBox="0 0 15 15" fill="none" id="double-arrow-right"><path d="M2.14645 11.1464C1.95118 11.3417 1.95118 11.6583 2.14645 11.8536C2.34171 12.0488 2.65829 12.0488 2.85355 11.8536L6.85355 7.85355C7.04882 7.65829 7.04882 7.34171 6.85355 7.14645L2.85355 3.14645C2.65829 2.95118 2.34171 2.95118 2.14645 3.14645C1.95118 3.34171 1.95118 3.65829 2.14645 3.85355L5.79289 7.5L2.14645 11.1464ZM8.14645 11.1464C7.95118 11.3417 7.95118 11.6583 8.14645 11.8536C8.34171 12.0488 8.65829 12.0488 8.85355 11.8536L12.8536 7.85355C13.0488 7.65829 13.0488 7.34171 12.8536 7.14645L8.85355 3.14645C8.65829 2.95118 8.34171 2.95118 8.14645 3.14645C7.95118 3.34171 7.95118 3.65829 8.14645 3.85355L11.7929 7.5L8.14645 11.1464Z" fill="currentColor" fill-rule="evenodd" clip-rule="evenodd"></path></symbol>
<symbol viewBox="0 0 15 15" fill="none" id="employee"><path d="M0.877197 7.49984C0.877197 3.84216 3.84234 0.877014 7.50003 0.877014C11.1577 0.877014 14.1229 3.84216 14.1229 7.49984C14.1229 11.1575 11.1577 14.1227 7.50003 14.1227C3.84234 14.1227 0.877197 11.1575 0.877197 7.49984ZM7.50003 1.82701C4.36702 1.82701 1.8272 4.36683 1.8272 7.49984C1.8272 10.6328 4.36702 13.1727 7.50003 13.1727C10.633 13.1727 13.1729 10.6328 13.1729 7.49984C13.1729 4.36683 10.633 1.82701 7.50003 1.82701ZM7.12457 9.00001C7.06994 9.12735 6.33165 11.9592 6.33165 11.9592C6.26018 12.226 5.98601 12.3843 5.71928 12.3128C5.45255 12.2413 5.29425 11.9672 5.36573 11.7004C5.36573 11.7004 6.24661 8.87268 6.24661 8.27007V6.80099L4.28763 6.27608C4.0209 6.20461 3.86261 5.93045 3.93408 5.66371C4.00555 5.39698 4.27972 5.23869 4.54645 5.31016C4.54645 5.31016 6.20042 5.87268 6.84579 5.87268H8.15505C8.80042 5.87268 10.4534 5.31042 10.4534 5.31042C10.7202 5.23895 10.9943 5.39724 11.0658 5.66397C11.1373 5.93071 10.979 6.20487 10.7122 6.27635L8.74661 6.80303V8.27007C8.74661 8.87268 9.62663 11.6971 9.62663 11.6971C9.6981 11.9639 9.5398 12.238 9.27307 12.3095C9.00634 12.381 8.73217 12.2227 8.6607 11.956C8.6607 11.956 7.91994 9.12735 7.86866 9.00001C7.81994 8.87268 7.65006 8.87268 7.65006 8.87268H7.34317C7.34317 8.87268 7.16994 8.87268 7.12457 9.00001ZM7.50043 5.12007C8.12175 5.12007 8.62543 4.61639 8.62543 3.99507C8.62543 3.37375 8.12175 2.87007 7.50043 2.87007C6.87911 2.87007 6.37543 3.37375 6.37543 3.99507C6.37543 4.61639 6.87911 5.12007 7.50043 5.12007Z" fill="currentColor" fill-rule="evenodd" clip-rule="evenodd"></path></symbol>
<symbol viewBox="0 0 15 15" fill="none" id="envelope-closed">
  <path     fill-rule="evenodd"
    clip-rule="evenodd"
    d="M1 2C0.447715 2 0 2.44772 0 3V12C0 12.5523 0.447715 13 1 13H14C14.5523 13 15 12.5523 15 12V3C15 2.44772 14.5523 2 14 2H1ZM1 3L14 3V3.92494C13.9174 3.92486 13.8338 3.94751 13.7589 3.99505L7.5 7.96703L1.24112 3.99505C1.16621 3.94751 1.0826 3.92486 1 3.92494V3ZM1 4.90797V12H14V4.90797L7.74112 8.87995C7.59394 8.97335 7.40606 8.97335 7.25888 8.87995L1 4.90797Z"
    fill="currentColor"
  ></path>
</symbol>
<symbol viewBox="0 0 15 15" fill="none" id="exit"><path d="M3 1C2.44771 1 2 1.44772 2 2V13C2 13.5523 2.44772 14 3 14H10.5C10.7761 14 11 13.7761 11 13.5C11 13.2239 10.7761 13 10.5 13H3V2L10.5 2C10.7761 2 11 1.77614 11 1.5C11 1.22386 10.7761 1 10.5 1H3ZM12.6036 4.89645C12.4083 4.70118 12.0917 4.70118 11.8964 4.89645C11.7012 5.09171 11.7012 5.40829 11.8964 5.60355L13.2929 7H6.5C6.22386 7 6 7.22386 6 7.5C6 7.77614 6.22386 8 6.5 8H13.2929L11.8964 9.39645C11.7012 9.59171 11.7012 9.90829 11.8964 10.1036C12.0917 10.2988 12.4083 10.2988 12.6036 10.1036L14.8536 7.85355C15.0488 7.65829 15.0488 7.34171 14.8536 7.14645L12.6036 4.89645Z" fill="currentColor" fill-rule="evenodd" clip-rule="evenodd"></path></symbol>
<symbol viewBox="0 0 15 15" fill="none" id="export"><path d="M7.81825 1.18188C7.64251 1.00615 7.35759 1.00615 7.18185 1.18188L4.18185 4.18188C4.00611 4.35762 4.00611 4.64254 4.18185 4.81828C4.35759 4.99401 4.64251 4.99401 4.81825 4.81828L7.05005 2.58648V9.49996C7.05005 9.74849 7.25152 9.94996 7.50005 9.94996C7.74858 9.94996 7.95005 9.74849 7.95005 9.49996V2.58648L10.1819 4.81828C10.3576 4.99401 10.6425 4.99401 10.8182 4.81828C10.994 4.64254 10.994 4.35762 10.8182 4.18188L7.81825 1.18188ZM2.5 9.99997C2.77614 9.99997 3 10.2238 3 10.5V12C3 12.5538 3.44565 13 3.99635 13H11.0012C11.5529 13 12 12.5528 12 12V10.5C12 10.2238 12.2239 9.99997 12.5 9.99997C12.7761 9.99997 13 10.2238 13 10.5V12C13 13.104 12.1062 14 11.0012 14H3.99635C2.89019 14 2 13.103 2 12V10.5C2 10.2238 2.22386 9.99997 2.5 9.99997Z" fill="currentColor" fill-rule="evenodd" clip-rule="evenodd"></path></symbol>
<symbol viewBox="0 0 15 15" fill="none" id="file-text">
  <path     fill-rule="evenodd"
    clip-rule="evenodd"
    d="M3 2.5C3 2.22386 3.22386 2 3.5 2H9.08579C9.21839 2 9.34557 2.05268 9.43934 2.14645L11.8536 4.56066C11.9473 4.65443 12 4.78161 12 4.91421V12.5C12 12.7761 11.7761 13 11.5 13H3.5C3.22386 13 3 12.7761 3 12.5V2.5ZM3.5 1C2.67157 1 2 1.67157 2 2.5V12.5C2 13.3284 2.67157 14 3.5 14H11.5C12.3284 14 13 13.3284 13 12.5V4.91421C13 4.51639 12.842 4.13486 12.5607 3.85355L10.1464 1.43934C9.86514 1.15804 9.48361 1 9.08579 1H3.5ZM4.5 4C4.22386 4 4 4.22386 4 4.5C4 4.77614 4.22386 5 4.5 5H7.5C7.77614 5 8 4.77614 8 4.5C8 4.22386 7.77614 4 7.5 4H4.5ZM4.5 7C4.22386 7 4 7.22386 4 7.5C4 7.77614 4.22386 8 4.5 8H10.5C10.7761 8 11 7.77614 11 7.5C11 7.22386 10.7761 7 10.5 7H4.5ZM4.5 10C4.22386 10 4 10.2239 4 10.5C4 10.7761 4.22386 11 4.5 11H10.5C10.7761 11 11 10.7761 11 10.5C11 10.2239 10.7761 10 10.5 10H4.5Z"
    fill="currentColor"
  ></path>
</symbol>
<symbol viewBox="0 0 15 15" fill="none" id="filter"><path d="M2 3.5C2 3.22386 2.22386 3 2.5 3H12.5C12.7761 3 13 3.22386 13 3.5V9.5C13 9.77614 12.7761 10 12.5 10H2.5C2.22386 10 2 9.77614 2 9.5V3.5ZM2 10.9146C1.4174 10.7087 1 10.1531 1 9.5V3.5C1 2.67157 1.67157 2 2.5 2H12.5C13.3284 2 14 2.67157 14 3.5V9.5C14 10.1531 13.5826 10.7087 13 10.9146V11.5C13 12.3284 12.3284 13 11.5 13H3.5C2.67157 13 2 12.3284 2 11.5V10.9146ZM12 11V11.5C12 11.7761 11.7761 12 11.5 12H3.5C3.22386 12 3 11.7761 3 11.5V11H12ZM5 6.5C5 6.22386 5.22386 6 5.5 6H7V4.5C7 4.22386 7.22386 4 7.5 4C7.77614 4 8 4.22386 8 4.5V6H9.5C9.77614 6 10 6.22386 10 6.5C10 6.77614 9.77614 7 9.5 7H8V8.5C8 8.77614 7.77614 9 7.5 9C7.22386 9 7 8.77614 7 8.5V7H5.5C5.22386 7 5 6.77614 5 6.5Z" fill="currentColor" fill-rule="evenodd" clip-rule="evenodd"></path></symbol>
<symbol viewBox="0 0 15 15" fill="none" id="hamburger"><path d="M2.5 4C2.22386 4 2 4.22386 2 4.5C2 4.77614 2.22386 5 2.5 5H12.5C12.7761 5 13 4.77614 13 4.5C13 4.22386 12.7761 4 12.5 4H2.5ZM2 7.5C2 7.22386 2.22386 7 2.5 7H12.5C12.7761 7 13 7.22386 13 7.5C13 7.77614 12.7761 8 12.5 8H2.5C2.22386 8 2 7.77614 2 7.5ZM2 10.5C2 10.2239 2.22386 10 2.5 10H12.5C12.7761 10 13 10.2239 13 10.5C13 10.7761 12.7761 11 12.5 11H2.5C2.22386 11 2 10.7761 2 10.5Z" fill="currentColor" fill-rule="evenodd" clip-rule="evenodd"></path></symbol>
<symbol viewBox="0 0 15 15" fill="none" id="heart"><path d="M1.35248 4.90532C1.35248 2.94498 2.936 1.35248 4.89346 1.35248C6.25769 1.35248 6.86058 1.92336 7.50002 2.93545C8.13946 1.92336 8.74235 1.35248 10.1066 1.35248C12.064 1.35248 13.6476 2.94498 13.6476 4.90532C13.6476 6.74041 12.6013 8.50508 11.4008 9.96927C10.2636 11.3562 8.92194 12.5508 8.00601 13.3664C7.94645 13.4194 7.88869 13.4709 7.83291 13.5206C7.64324 13.6899 7.3568 13.6899 7.16713 13.5206C7.11135 13.4709 7.05359 13.4194 6.99403 13.3664C6.0781 12.5508 4.73641 11.3562 3.59926 9.96927C2.39872 8.50508 1.35248 6.74041 1.35248 4.90532Z" fill="currentColor" fill-rule="evenodd" clip-rule="evenodd"></path></symbol>
<symbol viewBox="0 0 15 15" fill="none" id="home"><path d="M7.07926 0.222253C7.31275 -0.007434 7.6873 -0.007434 7.92079 0.222253L14.6708 6.86227C14.907 7.09465 14.9101 7.47453 14.6778 7.71076C14.4454 7.947 14.0655 7.95012 13.8293 7.71773L13 6.90201V12.5C13 12.7761 12.7762 13 12.5 13H2.50002C2.22388 13 2.00002 12.7761 2.00002 12.5V6.90201L1.17079 7.71773C0.934558 7.95012 0.554672 7.947 0.32229 7.71076C0.0899079 7.47453 0.0930283 7.09465 0.32926 6.86227L7.07926 0.222253ZM7.50002 1.49163L12 5.91831V12H10V8.49999C10 8.22385 9.77617 7.99999 9.50002 7.99999H6.50002C6.22388 7.99999 6.00002 8.22385 6.00002 8.49999V12H3.00002V5.91831L7.50002 1.49163ZM7.00002 12H9.00002V8.99999H7.00002V12Z" fill="currentColor" fill-rule="evenodd" clip-rule="evenodd"></path></symbol>
<symbol viewBox="0 0 15 15" fill="none" id="import"><path d="M7.50005 1.04999C7.74858 1.04999 7.95005 1.25146 7.95005 1.49999V8.41359L10.1819 6.18179C10.3576 6.00605 10.6425 6.00605 10.8182 6.18179C10.994 6.35753 10.994 6.64245 10.8182 6.81819L7.81825 9.81819C7.64251 9.99392 7.35759 9.99392 7.18185 9.81819L4.18185 6.81819C4.00611 6.64245 4.00611 6.35753 4.18185 6.18179C4.35759 6.00605 4.64251 6.00605 4.81825 6.18179L7.05005 8.41359V1.49999C7.05005 1.25146 7.25152 1.04999 7.50005 1.04999ZM2.5 10C2.77614 10 3 10.2239 3 10.5V12C3 12.5539 3.44565 13 3.99635 13H11.0012C11.5529 13 12 12.5528 12 12V10.5C12 10.2239 12.2239 10 12.5 10C12.7761 10 13 10.2239 13 10.5V12C13 13.1041 12.1062 14 11.0012 14H3.99635C2.89019 14 2 13.103 2 12V10.5C2 10.2239 2.22386 10 2.5 10Z" fill="currentColor" fill-rule="evenodd" clip-rule="evenodd"></path></symbol>
<symbol viewBox="0 0 15 15" fill="none" id="input"><path d="M6.5 1C6.22386 1 6 1.22386 6 1.5C6 1.77614 6.22386 2 6.5 2C7.12671 2 7.45718 2.20028 7.65563 2.47812C7.8781 2.78957 8 3.28837 8 4V11C8 11.7116 7.8781 12.2104 7.65563 12.5219C7.45718 12.7997 7.12671 13 6.5 13C6.22386 13 6 13.2239 6 13.5C6 13.7761 6.22386 14 6.5 14C7.37329 14 8.04282 13.7003 8.46937 13.1031C8.47976 13.0886 8.48997 13.0739 8.5 13.0591C8.51003 13.0739 8.52024 13.0886 8.53063 13.1031C8.95718 13.7003 9.62671 14 10.5 14C10.7761 14 11 13.7761 11 13.5C11 13.2239 10.7761 13 10.5 13C9.87329 13 9.54282 12.7997 9.34437 12.5219C9.1219 12.2104 9 11.7116 9 11V4C9 3.28837 9.1219 2.78957 9.34437 2.47812C9.54282 2.20028 9.87329 2 10.5 2C10.7761 2 11 1.77614 11 1.5C11 1.22386 10.7761 1 10.5 1C9.62671 1 8.95718 1.29972 8.53063 1.89688C8.52024 1.91143 8.51003 1.92611 8.5 1.9409C8.48997 1.92611 8.47976 1.91143 8.46937 1.89688C8.04282 1.29972 7.37329 1 6.5 1ZM14 5H11V4H14C14.5523 4 15 4.44772 15 5V10C15 10.5523 14.5523 11 14 11H11V10H14V5ZM6 4V5H1L1 10H6V11H1C0.447715 11 0 10.5523 0 10V5C0 4.44772 0.447715 4 1 4H6Z" fill="currentColor" fill-rule="evenodd" clip-rule="evenodd"></path></symbol>
<symbol viewBox="0 0 15 15" fill="none" id="lab-timer"><path d="M5.49998 0.5C5.49998 0.223858 5.72383 0 5.99998 0H7.49998H8.99998C9.27612 0 9.49998 0.223858 9.49998 0.5C9.49998 0.776142 9.27612 1 8.99998 1H7.99998V2.11922C9.09832 2.20409 10.119 2.56622 10.992 3.13572C11.0116 3.10851 11.0336 3.08252 11.058 3.05806L12.058 2.05806C12.3021 1.81398 12.6978 1.81398 12.9419 2.05806C13.186 2.30214 13.186 2.69786 12.9419 2.94194L11.967 3.91682C13.1595 5.07925 13.9 6.70314 13.9 8.49998C13.9 12.0346 11.0346 14.9 7.49998 14.9C3.96535 14.9 1.09998 12.0346 1.09998 8.49998C1.09998 5.13361 3.69904 2.3743 6.99998 2.11922V1H5.99998C5.72383 1 5.49998 0.776142 5.49998 0.5ZM2.09998 8.49998C2.09998 5.51764 4.51764 3.09998 7.49998 3.09998C10.4823 3.09998 12.9 5.51764 12.9 8.49998C12.9 11.4823 10.4823 13.9 7.49998 13.9C4.51764 13.9 2.09998 11.4823 2.09998 8.49998ZM7.49998 8.49998V4.09998C5.06992 4.09998 3.09998 6.06992 3.09998 8.49998C3.09998 10.93 5.06992 12.9 7.49998 12.9C8.715 12.9 9.815 12.4075 10.6112 11.6112L7.49998 8.49998Z" fill="currentColor" fill-rule="evenodd" clip-rule="evenodd"></path></symbol>
<symbol viewBox="0 0 15 15" fill="none" id="laptop"><path d="M2 4.25C2 4.11193 2.11193 4 2.25 4H12.75C12.8881 4 13 4.11193 13 4.25V11.5H2V4.25ZM2.25 3C1.55964 3 1 3.55964 1 4.25V12H0V12.5C0 12.7761 0.223858 13 0.5 13H14.5C14.7761 13 15 12.7761 15 12.5V12H14V4.25C14 3.55964 13.4404 3 12.75 3H2.25Z" fill="currentColor" fill-rule="evenodd" clip-rule="evenodd"></path></symbol>
<symbol viewBox="0 0 15 15" fill="none" id="link"><path d="M10.6788 2.95419C10.0435 2.53694 9.18829 2.54594 8.51194 3.00541C8.35757 3.11027 8.1921 3.27257 7.7651 3.69957L7.14638 4.31829C6.95112 4.51355 6.63454 4.51355 6.43928 4.31829C6.24401 4.12303 6.24401 3.80645 6.43928 3.61119L7.058 2.99247C7.0725 2.97797 7.08679 2.96366 7.1009 2.94955C7.47044 2.57991 7.70691 2.34336 7.95001 2.17822C8.94398 1.50299 10.2377 1.46813 11.2277 2.11832C11.4692 2.27689 11.7002 2.508 12.0515 2.85942C12.0662 2.8741 12.081 2.88898 12.0961 2.90408C12.1112 2.91917 12.1261 2.93405 12.1408 2.94871C12.4922 3.30001 12.7233 3.53102 12.8819 3.77248C13.5321 4.76252 13.4972 6.05623 12.822 7.0502C12.6568 7.2933 12.4203 7.52976 12.0507 7.89929C12.0366 7.9134 12.0222 7.92771 12.0077 7.94221L11.389 8.56093C11.1938 8.7562 10.8772 8.7562 10.6819 8.56093C10.4867 8.36567 10.4867 8.04909 10.6819 7.85383L11.3006 7.23511C11.7276 6.80811 11.8899 6.64264 11.9948 6.48827C12.4543 5.81192 12.4633 4.95675 12.046 4.32141C11.9513 4.17714 11.8009 4.02307 11.389 3.61119C10.9771 3.1993 10.8231 3.04893 10.6788 2.95419ZM4.31796 6.43961C4.51322 6.63487 4.51322 6.95146 4.31796 7.14672L3.69924 7.76544C3.27224 8.19244 3.10993 8.35791 3.00507 8.51227C2.54561 9.18863 2.53661 10.0438 2.95385 10.6791C3.0486 10.8234 3.19896 10.9775 3.61085 11.3894C4.02274 11.8012 4.17681 11.9516 4.32107 12.0464C4.95642 12.4636 5.81158 12.4546 6.48794 11.9951C6.6423 11.8903 6.80777 11.728 7.23477 11.301L7.85349 10.6823C8.04875 10.487 8.36533 10.487 8.5606 10.6823C8.75586 10.8775 8.75586 11.1941 8.5606 11.3894L7.94188 12.0081C7.92738 12.0226 7.91307 12.0369 7.89897 12.051C7.52943 12.4206 7.29296 12.6572 7.04986 12.8223C6.05589 13.4976 4.76219 13.5324 3.77214 12.8822C3.53068 12.7237 3.29967 12.4925 2.94837 12.1411C2.93371 12.1264 2.91883 12.1116 2.90374 12.0965C2.88865 12.0814 2.87377 12.0665 2.8591 12.0518C2.50766 11.7005 2.27656 11.4695 2.11799 11.2281C1.4678 10.238 1.50265 8.94432 2.17788 7.95035C2.34303 7.70724 2.57957 7.47077 2.94922 7.10124C2.96333 7.08713 2.97763 7.07283 2.99213 7.05833L3.61085 6.43961C3.80611 6.24435 4.12269 6.24435 4.31796 6.43961Z" fill="currentColor" fill-rule="evenodd" clip-rule="evenodd"></path></symbol>
<symbol viewBox="0 0 15 15" fill="none" id="moon">
  <path     fill-rule="evenodd"
    clip-rule="evenodd"
    d="M2.89998 0.499976C2.89998 0.279062 2.72089 0.0999756 2.49998 0.0999756C2.27906 0.0999756 2.09998 0.279062 2.09998 0.499976V1.09998H1.49998C1.27906 1.09998 1.09998 1.27906 1.09998 1.49998C1.09998 1.72089 1.27906 1.89998 1.49998 1.89998H2.09998V2.49998C2.09998 2.72089 2.27906 2.89998 2.49998 2.89998C2.72089 2.89998 2.89998 2.72089 2.89998 2.49998V1.89998H3.49998C3.72089 1.89998 3.89998 1.72089 3.89998 1.49998C3.89998 1.27906 3.72089 1.09998 3.49998 1.09998H2.89998V0.499976ZM5.89998 3.49998C5.89998 3.27906 5.72089 3.09998 5.49998 3.09998C5.27906 3.09998 5.09998 3.27906 5.09998 3.49998V4.09998H4.49998C4.27906 4.09998 4.09998 4.27906 4.09998 4.49998C4.09998 4.72089 4.27906 4.89998 4.49998 4.89998H5.09998V5.49998C5.09998 5.72089 5.27906 5.89998 5.49998 5.89998C5.72089 5.89998 5.89998 5.72089 5.89998 5.49998V4.89998H6.49998C6.72089 4.89998 6.89998 4.72089 6.89998 4.49998C6.89998 4.27906 6.72089 4.09998 6.49998 4.09998H5.89998V3.49998ZM1.89998 6.49998C1.89998 6.27906 1.72089 6.09998 1.49998 6.09998C1.27906 6.09998 1.09998 6.27906 1.09998 6.49998V7.09998H0.499976C0.279062 7.09998 0.0999756 7.27906 0.0999756 7.49998C0.0999756 7.72089 0.279062 7.89998 0.499976 7.89998H1.09998V8.49998C1.09998 8.72089 1.27906 8.89997 1.49998 8.89997C1.72089 8.89997 1.89998 8.72089 1.89998 8.49998V7.89998H2.49998C2.72089 7.89998 2.89998 7.72089 2.89998 7.49998C2.89998 7.27906 2.72089 7.09998 2.49998 7.09998H1.89998V6.49998ZM8.54406 0.98184L8.24618 0.941586C8.03275 0.917676 7.90692 1.1655 8.02936 1.34194C8.17013 1.54479 8.29981 1.75592 8.41754 1.97445C8.91878 2.90485 9.20322 3.96932 9.20322 5.10022C9.20322 8.37201 6.82247 11.0878 3.69887 11.6097C3.45736 11.65 3.20988 11.6772 2.96008 11.6906C2.74563 11.702 2.62729 11.9535 2.77721 12.1072C2.84551 12.1773 2.91535 12.2458 2.98667 12.3128L3.05883 12.3795L3.31883 12.6045L3.50684 12.7532L3.62796 12.8433L3.81491 12.9742L3.99079 13.089C4.11175 13.1651 4.23536 13.2375 4.36157 13.3059L4.62496 13.4412L4.88553 13.5607L5.18837 13.6828L5.43169 13.7686C5.56564 13.8128 5.70149 13.8529 5.83857 13.8885C5.94262 13.9155 6.04767 13.9401 6.15405 13.9622C6.27993 13.9883 6.40713 14.0109 6.53544 14.0298L6.85241 14.0685L7.11934 14.0892C7.24637 14.0965 7.37436 14.1002 7.50322 14.1002C11.1483 14.1002 14.1032 11.1453 14.1032 7.50023C14.1032 7.25044 14.0893 7.00389 14.0623 6.76131L14.0255 6.48407C13.991 6.26083 13.9453 6.04129 13.8891 5.82642C13.8213 5.56709 13.7382 5.31398 13.6409 5.06881L13.5279 4.80132L13.4507 4.63542L13.3766 4.48666C13.2178 4.17773 13.0353 3.88295 12.8312 3.60423L12.6782 3.40352L12.4793 3.16432L12.3157 2.98361L12.1961 2.85951L12.0355 2.70246L11.8134 2.50184L11.4925 2.24191L11.2483 2.06498L10.9562 1.87446L10.6346 1.68894L10.3073 1.52378L10.1938 1.47176L9.95488 1.3706L9.67791 1.2669L9.42566 1.1846L9.10075 1.09489L8.83599 1.03486L8.54406 0.98184ZM10.4032 5.30023C10.4032 4.27588 10.2002 3.29829 9.83244 2.40604C11.7623 3.28995 13.1032 5.23862 13.1032 7.50023C13.1032 10.593 10.596 13.1002 7.50322 13.1002C6.63646 13.1002 5.81597 12.9036 5.08355 12.5522C6.5419 12.0941 7.81081 11.2082 8.74322 10.0416C8.87963 10.2284 9.10028 10.3497 9.34928 10.3497C9.76349 10.3497 10.0993 10.0139 10.0993 9.59971C10.0993 9.24256 9.84965 8.94373 9.51535 8.86816C9.57741 8.75165 9.63653 8.63334 9.6926 8.51332C9.88358 8.63163 10.1088 8.69993 10.35 8.69993C11.0403 8.69993 11.6 8.14028 11.6 7.44993C11.6 6.75976 11.0406 6.20024 10.3505 6.19993C10.3853 5.90487 10.4032 5.60464 10.4032 5.30023Z"
    fill="currentColor"
  ></path>
</symbol>
<symbol viewBox="0 0 15 15" fill="none" id="new-window"><path fill-rule="evenodd" clip-rule="evenodd" d="M12 13C12.5523 13 13 12.5523 13 12V3C13 2.44771 12.5523 2 12 2H3C2.44771 2 2 2.44771 2 3V6.5C2 6.77614 2.22386 7 2.5 7C2.77614 7 3 6.77614 3 6.5V3H12V12H8.5C8.22386 12 8 12.2239 8 12.5C8 12.7761 8.22386 13 8.5 13H12ZM9 6.5C9 6.5001 9 6.50021 9 6.50031V6.50035V9.5C9 9.77614 8.77614 10 8.5 10C8.22386 10 8 9.77614 8 9.5V7.70711L2.85355 12.8536C2.65829 13.0488 2.34171 13.0488 2.14645 12.8536C1.95118 12.6583 1.95118 12.3417 2.14645 12.1464L7.29289 7H5.5C5.22386 7 5 6.77614 5 6.5C5 6.22386 5.22386 6 5.5 6H8.5C8.56779 6 8.63244 6.01349 8.69139 6.03794C8.74949 6.06198 8.80398 6.09744 8.85143 6.14433C8.94251 6.23434 8.9992 6.35909 8.99999 6.49708L8.99999 6.49738" fill="currentColor"></path></symbol>
<symbol viewBox="0 0 15 15" fill="none" id="person"><path d="M7.5 0.875C5.49797 0.875 3.875 2.49797 3.875 4.5C3.875 6.15288 4.98124 7.54738 6.49373 7.98351C5.2997 8.12901 4.27557 8.55134 3.50407 9.31167C2.52216 10.2794 2.02502 11.72 2.02502 13.5999C2.02502 13.8623 2.23769 14.0749 2.50002 14.0749C2.76236 14.0749 2.97502 13.8623 2.97502 13.5999C2.97502 11.8799 3.42786 10.7206 4.17091 9.9883C4.91536 9.25463 6.02674 8.87499 7.49995 8.87499C8.97317 8.87499 10.0846 9.25463 10.8291 9.98831C11.5721 10.7206 12.025 11.8799 12.025 13.5999C12.025 13.8623 12.2376 14.0749 12.5 14.0749C12.7623 14.075 12.975 13.8623 12.975 13.6C12.975 11.72 12.4778 10.2794 11.4959 9.31166C10.7244 8.55135 9.70025 8.12903 8.50625 7.98352C10.0187 7.5474 11.125 6.15289 11.125 4.5C11.125 2.49797 9.50203 0.875 7.5 0.875ZM4.825 4.5C4.825 3.02264 6.02264 1.825 7.5 1.825C8.97736 1.825 10.175 3.02264 10.175 4.5C10.175 5.97736 8.97736 7.175 7.5 7.175C6.02264 7.175 4.825 5.97736 4.825 4.5Z" fill="currentColor" fill-rule="evenodd" clip-rule="evenodd"></path></symbol>
<symbol viewBox="0 0 15 15" fill="none" id="pin"><path d="M10 3.5C10 4.70948 9.14112 5.71836 8 5.94999V13.5C8 13.7761 7.77614 14 7.5 14C7.22386 14 7 13.7761 7 13.5V5.94999C5.85888 5.71836 5 4.70948 5 3.5C5 2.11929 6.11929 1 7.5 1C8.88071 1 10 2.11929 10 3.5Z" fill="currentColor" fill-rule="evenodd" clip-rule="evenodd"></path></symbol>
<symbol viewBox="0 0 15 15" fill="none" id="plus-circled"><path d="M7.49991 0.876892C3.84222 0.876892 0.877075 3.84204 0.877075 7.49972C0.877075 11.1574 3.84222 14.1226 7.49991 14.1226C11.1576 14.1226 14.1227 11.1574 14.1227 7.49972C14.1227 3.84204 11.1576 0.876892 7.49991 0.876892ZM1.82707 7.49972C1.82707 4.36671 4.36689 1.82689 7.49991 1.82689C10.6329 1.82689 13.1727 4.36671 13.1727 7.49972C13.1727 10.6327 10.6329 13.1726 7.49991 13.1726C4.36689 13.1726 1.82707 10.6327 1.82707 7.49972ZM7.50003 4C7.77617 4 8.00003 4.22386 8.00003 4.5V7H10.5C10.7762 7 11 7.22386 11 7.5C11 7.77614 10.7762 8 10.5 8H8.00003V10.5C8.00003 10.7761 7.77617 11 7.50003 11C7.22389 11 7.00003 10.7761 7.00003 10.5V8H4.50003C4.22389 8 4.00003 7.77614 4.00003 7.5C4.00003 7.22386 4.22389 7 4.50003 7H7.00003V4.5C7.00003 4.22386 7.22389 4 7.50003 4Z" fill="currentColor" fill-rule="evenodd" clip-rule="evenodd"></path></symbol>
<symbol viewBox="0 0 15 15" fill="none" id="project"><path d="M4.60913 0.0634287C4.39082 0.0088505 4.16575 0.12393 4.08218 0.332867L3.1538 2.6538L0.832866 3.58218C0.702884 3.63417 0.604504 3.7437 0.566705 3.87849C0.528906 4.01329 0.555994 4.158 0.639992 4.26999L2.01148 6.09864L1.06343 9.89085C1.00944 10.1068 1.12145 10.3298 1.32691 10.4154L4.20115 11.613L5.62557 13.7496C5.73412 13.9124 5.93545 13.9864 6.12362 13.9327L9.62362 12.9327C9.62988 12.9309 9.63611 12.929 9.64229 12.9269L12.6423 11.9269C12.7923 11.8769 12.905 11.7519 12.9393 11.5976L13.9393 7.09761C13.9776 6.92506 13.9114 6.74605 13.77 6.63999L11.95 5.27499V2.99999C11.95 2.82955 11.8537 2.67373 11.7012 2.5975L8.70124 1.0975C8.67187 1.08282 8.64098 1.07139 8.60913 1.06343L4.60913 0.0634287ZM11.4323 6.01173L12.7748 7.01858L10.2119 9.15429C10.1476 9.20786 10.0995 9.2783 10.0731 9.35769L9.25382 11.8155L7.73849 10.8684C7.52774 10.7367 7.25011 10.8007 7.11839 11.0115C6.98667 11.2222 7.05074 11.4999 7.26149 11.6316L8.40341 12.3453L6.19221 12.9771L4.87441 11.0004C4.82513 10.9265 4.75508 10.8688 4.67307 10.8346L2.03046 9.73352L2.85134 6.44999H4.99999C5.24852 6.44999 5.44999 6.24852 5.44999 5.99999C5.44999 5.75146 5.24852 5.54999 4.99999 5.54999H2.72499L1.7123 4.19974L3.51407 3.47903L6.35769 4.4269C6.53655 4.48652 6.73361 4.42832 6.85138 4.28111L8.62413 2.06518L11.05 3.27811V5.19533L8.83287 6.08218C8.70996 6.13134 8.61494 6.23212 8.57308 6.35769L8.07308 7.85769C7.99449 8.09346 8.12191 8.34831 8.35769 8.4269C8.59346 8.50549 8.84831 8.37807 8.9269 8.14229L9.3609 6.84029L11.4323 6.01173ZM7.71052 1.76648L6.34462 3.47386L4.09505 2.724L4.77192 1.03183L7.71052 1.76648ZM10.2115 11.7885L12.116 11.1537L12.7745 8.19034L10.8864 9.76374L10.2115 11.7885Z" fill="currentColor" fill-rule="evenodd" clip-rule="evenodd"></path></symbol>
<symbol viewBox="0 0 15 15" fill="none" id="question-mark-circled">
  <path     fill-rule="evenodd"
    clip-rule="evenodd"
    d="M0.877075 7.49972C0.877075 3.84204 3.84222 0.876892 7.49991 0.876892C11.1576 0.876892 14.1227 3.84204 14.1227 7.49972C14.1227 11.1574 11.1576 14.1226 7.49991 14.1226C3.84222 14.1226 0.877075 11.1574 0.877075 7.49972ZM7.49991 1.82689C4.36689 1.82689 1.82708 4.36671 1.82708 7.49972C1.82708 10.6327 4.36689 13.1726 7.49991 13.1726C10.6329 13.1726 13.1727 10.6327 13.1727 7.49972C13.1727 4.36671 10.6329 1.82689 7.49991 1.82689ZM8.24993 10.5C8.24993 10.9142 7.91414 11.25 7.49993 11.25C7.08571 11.25 6.74993 10.9142 6.74993 10.5C6.74993 10.0858 7.08571 9.75 7.49993 9.75C7.91414 9.75 8.24993 10.0858 8.24993 10.5ZM6.05003 6.25C6.05003 5.57211 6.63511 4.925 7.50003 4.925C8.36496 4.925 8.95003 5.57211 8.95003 6.25C8.95003 6.74118 8.68002 6.99212 8.21447 7.27494C8.16251 7.30651 8.10258 7.34131 8.03847 7.37854L8.03841 7.37858C7.85521 7.48497 7.63788 7.61119 7.47449 7.73849C7.23214 7.92732 6.95003 8.23198 6.95003 8.7C6.95004 9.00376 7.19628 9.25 7.50004 9.25C7.8024 9.25 8.04778 9.00601 8.05002 8.70417L8.05056 8.7033C8.05924 8.6896 8.08493 8.65735 8.15058 8.6062C8.25207 8.52712 8.36508 8.46163 8.51567 8.37436L8.51571 8.37433C8.59422 8.32883 8.68296 8.27741 8.78559 8.21506C9.32004 7.89038 10.05 7.35382 10.05 6.25C10.05 4.92789 8.93511 3.825 7.50003 3.825C6.06496 3.825 4.95003 4.92789 4.95003 6.25C4.95003 6.55376 5.19628 6.8 5.50003 6.8C5.80379 6.8 6.05003 6.55376 6.05003 6.25Z"
    fill="currentColor"
  ></path>
</symbol>
<symbol viewBox="0 0 15 15" fill="none" id="reset">
  <path     fill-rule="evenodd"
    clip-rule="evenodd"
    d="M4.85355 2.14645C5.04882 2.34171 5.04882 2.65829 4.85355 2.85355L3.70711 4H9C11.4853 4 13.5 6.01472 13.5 8.5C13.5 10.9853 11.4853 13 9 13H5C4.72386 13 4.5 12.7761 4.5 12.5C4.5 12.2239 4.72386 12 5 12H9C10.933 12 12.5 10.433 12.5 8.5C12.5 6.567 10.933 5 9 5H3.70711L4.85355 6.14645C5.04882 6.34171 5.04882 6.65829 4.85355 6.85355C4.65829 7.04882 4.34171 7.04882 4.14645 6.85355L2.14645 4.85355C1.95118 4.65829 1.95118 4.34171 2.14645 4.14645L4.14645 2.14645C4.34171 1.95118 4.65829 1.95118 4.85355 2.14645Z"
    fill="currentColor"
  ></path>
</symbol>
<symbol viewBox="0 0 15 15" fill="none" id="rocket"><path d="M6.85357 3.85355L7.65355 3.05353C8.2981 2.40901 9.42858 1.96172 10.552 1.80125C11.1056 1.72217 11.6291 1.71725 12.0564 1.78124C12.4987 1.84748 12.7698 1.97696 12.8965 2.10357C13.0231 2.23018 13.1526 2.50125 13.2188 2.94357C13.2828 3.37086 13.2779 3.89439 13.1988 4.44801C13.0383 5.57139 12.591 6.70188 11.9464 7.34645L7.49999 11.7929L6.35354 10.6465C6.15827 10.4512 5.84169 10.4512 5.64643 10.6465C5.45117 10.8417 5.45117 11.1583 5.64643 11.3536L7.14644 12.8536C7.34171 13.0488 7.65829 13.0488 7.85355 12.8536L8.40073 12.3064L9.57124 14.2572C9.65046 14.3893 9.78608 14.4774 9.9389 14.4963C10.0917 14.5151 10.2447 14.4624 10.3535 14.3536L12.3535 12.3536C12.4648 12.2423 12.5172 12.0851 12.495 11.9293L12.0303 8.67679L12.6536 8.05355C13.509 7.19808 14.0117 5.82855 14.1887 4.58943C14.2784 3.9618 14.2891 3.33847 14.2078 2.79546C14.1287 2.26748 13.9519 1.74482 13.6035 1.39645C13.2552 1.04809 12.7325 0.871332 12.2045 0.792264C11.6615 0.710945 11.0382 0.721644 10.4105 0.8113C9.17143 0.988306 7.80189 1.491 6.94644 2.34642L6.32322 2.96968L3.07071 2.50504C2.91492 2.48278 2.75773 2.53517 2.64645 2.64646L0.646451 4.64645C0.537579 4.75533 0.484938 4.90829 0.50375 5.0611C0.522563 5.21391 0.61073 5.34954 0.742757 5.42876L2.69364 6.59928L2.14646 7.14645C2.0527 7.24022 2.00002 7.3674 2.00002 7.50001C2.00002 7.63261 2.0527 7.75979 2.14646 7.85356L3.64647 9.35356C3.84173 9.54883 4.15831 9.54883 4.35357 9.35356C4.54884 9.1583 4.54884 8.84172 4.35357 8.64646L3.20712 7.50001L3.85357 6.85356L6.85357 3.85355ZM10.0993 13.1936L9.12959 11.5775L11.1464 9.56067L11.4697 11.8232L10.0993 13.1936ZM3.42251 5.87041L5.43935 3.85356L3.17678 3.53034L1.80638 4.90074L3.42251 5.87041ZM2.35356 10.3535C2.54882 10.1583 2.54882 9.8417 2.35356 9.64644C2.1583 9.45118 1.84171 9.45118 1.64645 9.64644L0.646451 10.6464C0.451188 10.8417 0.451188 11.1583 0.646451 11.3535C0.841713 11.5488 1.1583 11.5488 1.35356 11.3535L2.35356 10.3535ZM3.85358 11.8536C4.04884 11.6583 4.04885 11.3417 3.85359 11.1465C3.65833 10.9512 3.34175 10.9512 3.14648 11.1465L1.14645 13.1464C0.95119 13.3417 0.951187 13.6583 1.14645 13.8535C1.34171 14.0488 1.65829 14.0488 1.85355 13.8536L3.85358 11.8536ZM5.35356 13.3535C5.54882 13.1583 5.54882 12.8417 5.35356 12.6464C5.1583 12.4512 4.84171 12.4512 4.64645 12.6464L3.64645 13.6464C3.45119 13.8417 3.45119 14.1583 3.64645 14.3535C3.84171 14.5488 4.1583 14.5488 4.35356 14.3535L5.35356 13.3535ZM9.49997 6.74881C10.1897 6.74881 10.7488 6.1897 10.7488 5.5C10.7488 4.8103 10.1897 4.25118 9.49997 4.25118C8.81026 4.25118 8.25115 4.8103 8.25115 5.5C8.25115 6.1897 8.81026 6.74881 9.49997 6.74881Z" fill="currentColor" fill-rule="evenodd" clip-rule="evenodd"></path></symbol>
<symbol viewBox="0 0 15 15" fill="none" id="search"><path d="M10 6.5C10 8.433 8.433 10 6.5 10C4.567 10 3 8.433 3 6.5C3 4.567 4.567 3 6.5 3C8.433 3 10 4.567 10 6.5ZM9.30884 10.0159C8.53901 10.6318 7.56251 11 6.5 11C4.01472 11 2 8.98528 2 6.5C2 4.01472 4.01472 2 6.5 2C8.98528 2 11 4.01472 11 6.5C11 7.56251 10.6318 8.53901 10.0159 9.30884L12.8536 12.1464C13.0488 12.3417 13.0488 12.6583 12.8536 12.8536C12.6583 13.0488 12.3417 13.0488 12.1464 12.8536L9.30884 10.0159Z" fill="currentColor" fill-rule="evenodd" clip-rule="evenodd"></path></symbol>
<symbol viewBox="0 0 15 15" fill="none" id="stacked-filter"><path d="M2 3.5C2 3.22386 2.22386 3 2.5 3H12.5C12.7761 3 13 3.22386 13 3.5V9.5C13 9.77614 12.7761 10 12.5 10H2.5C2.22386 10 2 9.77614 2 9.5V3.5ZM2 10.9146C1.4174 10.7087 1 10.1531 1 9.5V3.5C1 2.67157 1.67157 2 2.5 2H12.5C13.3284 2 14 2.67157 14 3.5V9.5C14 10.1531 13.5826 10.7087 13 10.9146V11.5C13 12.3284 12.3284 13 11.5 13H3.5C2.67157 13 2 12.3284 2 11.5V10.9146ZM12 11V11.5C12 11.7761 11.7761 12 11.5 12H3.5C3.22386 12 3 11.7761 3 11.5V11H12Z" fill="currentColor" fill-rule="evenodd" clip-rule="evenodd"></path></symbol>
<symbol viewBox="0 0 15 15" fill="none" id="sun">
  <path     fill-rule="evenodd"
    clip-rule="evenodd"
    d="M7.5 0C7.77614 0 8 0.223858 8 0.5V2.5C8 2.77614 7.77614 3 7.5 3C7.22386 3 7 2.77614 7 2.5V0.5C7 0.223858 7.22386 0 7.5 0ZM2.1967 2.1967C2.39196 2.00144 2.70854 2.00144 2.90381 2.1967L4.31802 3.61091C4.51328 3.80617 4.51328 4.12276 4.31802 4.31802C4.12276 4.51328 3.80617 4.51328 3.61091 4.31802L2.1967 2.90381C2.00144 2.70854 2.00144 2.39196 2.1967 2.1967ZM0.5 7C0.223858 7 0 7.22386 0 7.5C0 7.77614 0.223858 8 0.5 8H2.5C2.77614 8 3 7.77614 3 7.5C3 7.22386 2.77614 7 2.5 7H0.5ZM2.1967 12.8033C2.00144 12.608 2.00144 12.2915 2.1967 12.0962L3.61091 10.682C3.80617 10.4867 4.12276 10.4867 4.31802 10.682C4.51328 10.8772 4.51328 11.1938 4.31802 11.3891L2.90381 12.8033C2.70854 12.9986 2.39196 12.9986 2.1967 12.8033ZM12.5 7C12.2239 7 12 7.22386 12 7.5C12 7.77614 12.2239 8 12.5 8H14.5C14.7761 8 15 7.77614 15 7.5C15 7.22386 14.7761 7 14.5 7H12.5ZM10.682 4.31802C10.4867 4.12276 10.4867 3.80617 10.682 3.61091L12.0962 2.1967C12.2915 2.00144 12.608 2.00144 12.8033 2.1967C12.9986 2.39196 12.9986 2.70854 12.8033 2.90381L11.3891 4.31802C11.1938 4.51328 10.8772 4.51328 10.682 4.31802ZM8 12.5C8 12.2239 7.77614 12 7.5 12C7.22386 12 7 12.2239 7 12.5V14.5C7 14.7761 7.22386 15 7.5 15C7.77614 15 8 14.7761 8 14.5V12.5ZM10.682 10.682C10.8772 10.4867 11.1938 10.4867 11.3891 10.682L12.8033 12.0962C12.9986 12.2915 12.9986 12.608 12.8033 12.8033C12.608 12.9986 12.2915 12.9986 12.0962 12.8033L10.682 11.3891C10.4867 11.1938 10.4867 10.8772 10.682 10.682ZM5.5 7.5C5.5 6.39543 6.39543 5.5 7.5 5.5C8.60457 5.5 9.5 6.39543 9.5 7.5C9.5 8.60457 8.60457 9.5 7.5 9.5C6.39543 9.5 5.5 8.60457 5.5 7.5ZM7.5 4.5C5.84315 4.5 4.5 5.84315 4.5 7.5C4.5 9.15685 5.84315 10.5 7.5 10.5C9.15685 10.5 10.5 9.15685 10.5 7.5C10.5 5.84315 9.15685 4.5 7.5 4.5Z"
    fill="currentColor"
  ></path>
</symbol>
<symbol viewBox="0 0 15 15" fill="none" id="table"><path d="M8 2H12.5C12.7761 2 13 2.22386 13 2.5V5H8V2ZM7 5V2H2.5C2.22386 2 2 2.22386 2 2.5V5H7ZM2 6V9H7V6H2ZM8 6H13V9H8V6ZM8 10H13V12.5C13 12.7761 12.7761 13 12.5 13H8V10ZM2 12.5V10H7V13H2.5C2.22386 13 2 12.7761 2 12.5ZM1 2.5C1 1.67157 1.67157 1 2.5 1H12.5C13.3284 1 14 1.67157 14 2.5V12.5C14 13.3284 13.3284 14 12.5 14H2.5C1.67157 14 1 13.3284 1 12.5V2.5Z" fill="currentColor" fill-rule="evenodd" clip-rule="evenodd"></path></symbol>
<symbol viewBox="0 0 15 15" fill="none" id="trash">
  <path     fill-rule="evenodd"
    clip-rule="evenodd"
    d="M5.5 1C5.22386 1 5 1.22386 5 1.5C5 1.77614 5.22386 2 5.5 2H9.5C9.77614 2 10 1.77614 10 1.5C10 1.22386 9.77614 1 9.5 1H5.5ZM3 3.5C3 3.22386 3.22386 3 3.5 3H5H10H11.5C11.7761 3 12 3.22386 12 3.5C12 3.77614 11.7761 4 11.5 4H11V12C11 12.5523 10.5523 13 10 13H5C4.44772 13 4 12.5523 4 12V4L3.5 4C3.22386 4 3 3.77614 3 3.5ZM5 4H10V12H5V4Z"
    fill="currentColor"
  ></path>
</symbol>
<symbol viewBox="0 0 15 15" fill="none" id="triangle-down"><path d="M4 6H11L7.5 10.5L4 6Z" fill="currentColor"></path></symbol>
<symbol viewBox="0 0 15 15" fill="none" id="triangle-up"><path d="M4 9H11L7.5 4.5L4 9Z" fill="currentColor"></path></symbol>
<symbol viewBox="0 0 15 15" fill="none" id="update">
  <path     fill-rule="evenodd"
    clip-rule="evenodd"
    d="M1.90321 7.29677C1.90321 10.341 4.11041 12.4147 6.58893 12.8439C6.87255 12.893 7.06266 13.1627 7.01355 13.4464C6.96444 13.73 6.69471 13.9201 6.41109 13.871C3.49942 13.3668 0.86084 10.9127 0.86084 7.29677C0.860839 5.76009 1.55996 4.55245 2.37639 3.63377C2.96124 2.97568 3.63034 2.44135 4.16846 2.03202L2.53205 2.03202C2.25591 2.03202 2.03205 1.80816 2.03205 1.53202C2.03205 1.25588 2.25591 1.03202 2.53205 1.03202L5.53205 1.03202C5.80819 1.03202 6.03205 1.25588 6.03205 1.53202L6.03205 4.53202C6.03205 4.80816 5.80819 5.03202 5.53205 5.03202C5.25591 5.03202 5.03205 4.80816 5.03205 4.53202L5.03205 2.68645L5.03054 2.68759L5.03045 2.68766L5.03044 2.68767L5.03043 2.68767C4.45896 3.11868 3.76059 3.64538 3.15554 4.3262C2.44102 5.13021 1.90321 6.10154 1.90321 7.29677ZM13.0109 7.70321C13.0109 4.69115 10.8505 2.6296 8.40384 2.17029C8.12093 2.11718 7.93465 1.84479 7.98776 1.56188C8.04087 1.27898 8.31326 1.0927 8.59616 1.14581C11.4704 1.68541 14.0532 4.12605 14.0532 7.70321C14.0532 9.23988 13.3541 10.4475 12.5377 11.3662C11.9528 12.0243 11.2837 12.5586 10.7456 12.968L12.3821 12.968C12.6582 12.968 12.8821 13.1918 12.8821 13.468C12.8821 13.7441 12.6582 13.968 12.3821 13.968L9.38205 13.968C9.10591 13.968 8.88205 13.7441 8.88205 13.468L8.88205 10.468C8.88205 10.1918 9.10591 9.96796 9.38205 9.96796C9.65819 9.96796 9.88205 10.1918 9.88205 10.468L9.88205 12.3135L9.88362 12.3123C10.4551 11.8813 11.1535 11.3546 11.7585 10.6738C12.4731 9.86976 13.0109 8.89844 13.0109 7.70321Z"
    fill="currentColor"
  ></path>
</symbol>
</defs>
</svg>
